<svg width="206" height="69" viewBox="0 0 206 69" fill="none" xmlns="http://www.w3.org/2000/svg">
<path d="M0 36.4847V13.8053H5.82338V20.2129L5.00263 18.358C5.62796 16.7562 6.6311 15.5477 8.01203 14.7327C9.39297 13.8896 11.0735 13.4681 13.0537 13.4681V19.5384C12.7932 19.5103 12.5587 19.4962 12.3503 19.4962C12.1418 19.4681 11.9203 19.4541 11.6858 19.4541C10.0183 19.4541 8.66342 19.974 7.6212 21.0138C6.60504 22.0255 6.09696 23.6134 6.09696 25.7773V36.4847H0Z" fill="white"/>
<path d="M26.9615 36.8219C24.5644 36.8219 22.4539 36.316 20.6301 35.3043C18.8322 34.2926 17.4383 32.9155 16.4482 31.1731C15.4581 29.4026 14.963 27.3932 14.963 25.145C14.963 22.8686 15.445 20.8592 16.4091 19.1168C17.3992 17.3463 18.741 15.9693 20.4347 14.9856C22.1283 13.9739 24.0433 13.4681 26.1799 13.4681C28.2382 13.4681 30.0882 13.9458 31.7297 14.9013C33.3972 15.8287 34.713 17.1777 35.6771 18.9482C36.6411 20.6906 37.1231 22.7843 37.1231 25.2293C37.1231 25.4822 37.1101 25.7773 37.084 26.1146C37.058 26.4237 37.0319 26.7188 37.0059 26.9998H19.9266V23.1637H33.8011L31.4561 24.3019C31.4561 23.1215 31.2346 22.0958 30.7917 21.2246C30.3487 20.3534 29.7364 19.6789 28.9548 19.2011C28.1731 18.6953 27.2612 18.4424 26.2189 18.4424C25.1767 18.4424 24.2518 18.6953 23.444 19.2011C22.6624 19.6789 22.0501 20.3674 21.6071 21.2667C21.1642 22.1379 20.9427 23.1778 20.9427 24.3862V25.3979C20.9427 26.6345 21.1903 27.7305 21.6853 28.686C22.2064 29.6134 22.9229 30.33 23.8349 30.8359C24.7729 31.3137 25.8672 31.5525 27.1179 31.5525C28.2382 31.5525 29.2153 31.3699 30.0491 31.0045C30.9089 30.6392 31.6906 30.0912 32.3941 29.3605L35.638 33.1544C34.6739 34.3348 33.4623 35.2481 32.0032 35.8945C30.5441 36.5128 28.8636 36.8219 26.9615 36.8219Z" fill="white"/>
<path d="M53.6107 36.8219C51.7607 36.8219 50.1714 36.4003 48.8425 35.5573C47.5137 34.7142 46.4976 33.4355 45.7941 31.7212C45.0906 29.9788 44.7388 27.7867 44.7388 25.145C44.7388 22.4752 45.1036 20.2831 45.8331 18.5688C46.5888 16.8545 47.631 15.5758 48.9598 14.7327C50.2886 13.8896 51.8389 13.4681 53.6107 13.4681C55.5909 13.4681 57.3627 13.9458 58.926 14.9013C60.5154 15.8569 61.766 17.2058 62.678 18.9482C63.616 20.6906 64.085 22.7562 64.085 25.145C64.085 27.5057 63.616 29.5572 62.678 31.2996C61.766 33.042 60.5154 34.405 58.926 35.3886C57.3627 36.3441 55.5909 36.8219 53.6107 36.8219ZM41.1823 36.4847V5.20571H47.2792V18.4002L46.8884 25.1028L47.0056 31.8476V36.4847H41.1823ZM52.5554 31.4261C53.5716 31.4261 54.4705 31.1731 55.2522 30.6673C56.0599 30.1614 56.6982 29.4448 57.1672 28.5174C57.6623 27.5619 57.9098 26.4377 57.9098 25.145C57.9098 23.8241 57.6623 22.7 57.1672 21.7726C56.6982 20.8452 56.0599 20.1286 55.2522 19.6227C54.4705 19.1168 53.5716 18.8639 52.5554 18.8639C51.5393 18.8639 50.6273 19.1168 49.8196 19.6227C49.0119 20.1286 48.3736 20.8452 47.9046 21.7726C47.4356 22.7 47.2011 23.8241 47.2011 25.145C47.2011 26.4377 47.4356 27.5619 47.9046 28.5174C48.3736 29.4448 49.0119 30.1614 49.8196 30.6673C50.6273 31.1731 51.5393 31.4261 52.5554 31.4261Z" fill="white"/>
<path d="M103.782 36.8219C101.541 36.8219 99.5478 36.316 97.802 35.3043C96.0824 34.2926 94.7145 32.9155 93.6983 31.1731C92.7082 29.4026 92.2132 27.3932 92.2132 25.145C92.2132 22.8686 92.7082 20.8592 93.6983 19.1168C94.7145 17.3463 96.0824 15.9693 97.802 14.9856C99.5478 13.9739 101.541 13.4681 103.782 13.4681C105.996 13.4681 107.977 13.9739 109.722 14.9856C111.468 15.9693 112.836 17.3323 113.826 19.0747C114.816 20.8171 115.311 22.8405 115.311 25.145C115.311 27.3932 114.816 29.4026 113.826 31.1731C112.836 32.9155 111.468 34.2926 109.722 35.3043C107.977 36.316 105.996 36.8219 103.782 36.8219ZM103.782 31.4261C104.798 31.4261 105.71 31.1731 106.518 30.6673C107.325 30.1614 107.964 29.4448 108.433 28.5174C108.902 27.5619 109.136 26.4377 109.136 25.145C109.136 23.8241 108.902 22.7 108.433 21.7726C107.964 20.8452 107.325 20.1286 106.518 19.6227C105.71 19.1168 104.798 18.8639 103.782 18.8639C102.766 18.8639 101.854 19.1168 101.046 19.6227C100.238 20.1286 99.5868 20.8452 99.0918 21.7726C98.6228 22.7 98.3883 23.8241 98.3883 25.145C98.3883 26.4377 98.6228 27.5619 99.0918 28.5174C99.5868 29.4448 100.238 30.1614 101.046 30.6673C101.854 31.1731 102.766 31.4261 103.782 31.4261Z" fill="white"/>
<path d="M124.428 31.8476L124.585 23.8382L134.394 13.8053H141.664L132.245 24.1333L129.079 26.9155L124.428 31.8476ZM119.387 36.4847V5.20571H125.484V36.4847H119.387ZM135.059 36.4847L127.946 26.9576L131.776 21.8569L142.446 36.4847H135.059Z" fill="white"/>
<path d="M145.188 36.4847V13.8053H151.284V36.4847H145.188ZM148.236 10.6437C147.116 10.6437 146.204 10.2924 145.5 9.58982C144.797 8.88724 144.445 8.01604 144.445 6.97621C144.445 5.93639 144.797 5.06519 145.5 4.36261C146.204 3.66003 147.116 3.30874 148.236 3.30874C149.356 3.30874 150.268 3.64598 150.972 4.32046C151.675 4.96683 152.027 5.80993 152.027 6.84975C152.027 7.94578 151.675 8.85913 150.972 9.58982C150.294 10.2924 149.382 10.6437 148.236 10.6437Z" fill="white"/>
<path d="M169.723 13.4681C171.391 13.4681 172.876 13.8334 174.179 14.5641C175.507 15.2667 176.55 16.3627 177.305 17.8522C178.061 19.3136 178.439 21.1965 178.439 23.5009V36.4847H172.342V24.5127C172.342 22.6859 171.964 21.337 171.208 20.4658C170.479 19.5946 169.437 19.159 168.082 19.159C167.118 19.159 166.245 19.3838 165.463 19.8335C164.707 20.255 164.108 20.9154 163.665 21.8147C163.248 22.7141 163.04 23.8663 163.04 25.2715V36.4847H156.943V13.8053H162.766V20.0864L161.672 18.1894C162.428 16.6718 163.509 15.5056 164.916 14.6906C166.323 13.8756 167.925 13.4681 169.723 13.4681Z" fill="white"/>
<path d="M194.006 45C192.026 45 190.111 44.733 188.261 44.199C186.437 43.6932 184.913 42.9203 183.688 41.8805L186.111 37.1591C186.997 37.946 188.117 38.5643 189.472 39.014C190.853 39.4917 192.208 39.7306 193.537 39.7306C195.7 39.7306 197.263 39.2107 198.227 38.1709C199.217 37.131 199.712 35.5854 199.712 33.5338V30.1193L200.103 24.4284L200.025 18.6953V13.8053H205.809V32.6907C205.809 36.9062 204.793 40.0116 202.761 42.007C200.728 44.0023 197.81 45 194.006 45ZM193.068 35.3886C191.114 35.3886 189.342 34.939 187.753 34.0397C186.189 33.1123 184.926 31.8336 183.962 30.2036C183.024 28.5455 182.555 26.6204 182.555 24.4284C182.555 22.2082 183.024 20.2831 183.962 18.6531C184.926 16.995 186.189 15.7163 187.753 14.817C189.342 13.9177 191.114 13.4681 193.068 13.4681C194.84 13.4681 196.403 13.8615 197.758 14.6484C199.113 15.4072 200.168 16.6016 200.924 18.2316C201.679 19.8335 202.057 21.8991 202.057 24.4284C202.057 26.9295 201.679 28.9951 200.924 30.6251C200.168 32.227 199.113 33.4214 197.758 34.2083C196.403 34.9952 194.84 35.3886 193.068 35.3886ZM194.28 29.9928C195.348 29.9928 196.299 29.768 197.133 29.3183C197.966 28.8406 198.618 28.1801 199.087 27.337C199.556 26.4939 199.79 25.5244 199.79 24.4284C199.79 23.3042 199.556 22.3347 199.087 21.5197C198.618 20.6766 197.966 20.0302 197.133 19.5805C196.299 19.1028 195.348 18.8639 194.28 18.8639C193.211 18.8639 192.26 19.1028 191.426 19.5805C190.593 20.0302 189.928 20.6766 189.433 21.5197C188.964 22.3347 188.73 23.3042 188.73 24.4284C188.73 25.5244 188.964 26.4939 189.433 27.337C189.928 28.1801 190.593 28.8406 191.426 29.3183C192.26 29.768 193.211 29.9928 194.28 29.9928Z" fill="white"/>
<path d="M77.7453 23.3538C75.5046 23.3538 73.5113 22.848 71.7656 21.8362C70.046 20.8245 68.6781 19.4475 67.6619 17.7051C66.6718 15.9346 66.1768 13.9252 66.1768 11.6769C66.1768 9.40054 66.6718 7.39116 67.6619 5.64876C68.6781 3.87825 70.046 2.50119 71.7656 1.51758C73.5113 0.505858 75.5046 0 77.7453 0C79.9601 0 81.9403 0.505858 83.686 1.51758C85.4317 2.50119 86.7996 3.8642 87.7897 5.6066C88.7798 7.34901 89.2749 9.37244 89.2749 11.6769C89.2749 13.9252 88.7798 15.9346 87.7897 17.7051C86.7996 19.4475 85.4317 20.8245 83.686 21.8362C81.9403 22.848 79.9601 23.3538 77.7453 23.3538ZM77.7453 17.958C78.7615 17.958 79.6734 17.7051 80.4812 17.1992C81.2889 16.6933 81.9272 15.9767 82.3962 15.0493C82.8652 14.0938 83.0997 12.9697 83.0997 11.6769C83.0997 10.3561 82.8652 9.23193 82.3962 8.30452C81.9272 7.37711 81.2889 6.66048 80.4812 6.15462C79.6734 5.64876 78.7615 5.39583 77.7453 5.39583C76.7292 5.39583 75.8172 5.64876 75.0095 6.15462C74.2018 6.66048 73.5504 7.37711 73.0554 8.30452C72.5864 9.23193 72.3519 10.3561 72.3519 11.6769C72.3519 12.9697 72.5864 14.0938 73.0554 15.0493C73.5504 15.9767 74.2018 16.6933 75.0095 17.1992C75.8172 17.7051 76.7292 17.958 77.7453 17.958Z" fill="#F2A14B"/>
<line x1="99.4408" y1="4.26193" x2="83.1554" y2="34.2958" stroke="#F2A14B" stroke-width="4"/>
<path d="M9.72 64L5.4 58.8L6.58 58.1L11.4 64H9.72ZM2.02 64V53.5H3.44V64H2.02ZM3 59.32V58.1H6.38V59.32H3ZM6.7 58.9L5.38 58.7L9.56 53.5H11.1L6.7 58.9ZM17.59 64.1C16.5767 64.1 15.6633 63.8733 14.85 63.42C14.05 62.9533 13.4167 62.32 12.95 61.52C12.4833 60.7067 12.25 59.78 12.25 58.74C12.25 57.6867 12.4833 56.76 12.95 55.96C13.4167 55.16 14.05 54.5333 14.85 54.08C15.65 53.6267 16.5633 53.4 17.59 53.4C18.63 53.4 19.55 53.6267 20.35 54.08C21.1633 54.5333 21.7967 55.16 22.25 55.96C22.7167 56.76 22.95 57.6867 22.95 58.74C22.95 59.78 22.7167 60.7067 22.25 61.52C21.7967 62.32 21.1633 62.9533 20.35 63.42C19.5367 63.8733 18.6167 64.1 17.59 64.1ZM17.59 62.84C18.35 62.84 19.0233 62.6733 19.61 62.34C20.1967 61.9933 20.6567 61.5133 20.99 60.9C21.3367 60.2733 21.51 59.5533 21.51 58.74C21.51 57.9133 21.3367 57.1933 20.99 56.58C20.6567 55.9667 20.1967 55.4933 19.61 55.16C19.0233 54.8133 18.3567 54.64 17.61 54.64C16.8633 54.64 16.1967 54.8133 15.61 55.16C15.0233 55.4933 14.5567 55.9667 14.21 56.58C13.8633 57.1933 13.69 57.9133 13.69 58.74C13.69 59.5533 13.8633 60.2733 14.21 60.9C14.5567 61.5133 15.0233 61.9933 15.61 62.34C16.1967 62.6733 16.8567 62.84 17.59 62.84ZM25.9848 64V53.5H27.4048V58.14H34.0248V53.5H35.4448V64H34.0248V59.36H27.4048V64H25.9848ZM43.8809 64.1C42.8409 64.1 41.9076 63.8733 41.0809 63.42C40.2676 62.9533 39.6276 62.32 39.1609 61.52C38.6943 60.7067 38.4609 59.78 38.4609 58.74C38.4609 57.6867 38.6943 56.76 39.1609 55.96C39.6276 55.16 40.2676 54.5333 41.0809 54.08C41.9076 53.6267 42.8409 53.4 43.8809 53.4C44.7743 53.4 45.5809 53.5733 46.3009 53.92C47.0209 54.2667 47.5876 54.7867 48.0009 55.48L46.9409 56.2C46.5809 55.6667 46.1343 55.2733 45.6009 55.02C45.0676 54.7667 44.4876 54.64 43.8609 54.64C43.1143 54.64 42.4409 54.8133 41.8409 55.16C41.2409 55.4933 40.7676 55.9667 40.4209 56.58C40.0743 57.1933 39.9009 57.9133 39.9009 58.74C39.9009 59.5667 40.0743 60.2867 40.4209 60.9C40.7676 61.5133 41.2409 61.9933 41.8409 62.34C42.4409 62.6733 43.1143 62.84 43.8609 62.84C44.4876 62.84 45.0676 62.7133 45.6009 62.46C46.1343 62.2067 46.5809 61.82 46.9409 61.3L48.0009 62.02C47.5876 62.7 47.0209 63.22 46.3009 63.58C45.5809 63.9267 44.7743 64.1 43.8809 64.1ZM55.2705 57.2C56.5905 57.2133 57.5905 57.5067 58.2705 58.08C58.9638 58.6533 59.3105 59.48 59.3105 60.56C59.3105 61.68 58.9371 62.54 58.1905 63.14C57.4571 63.74 56.3905 64.0333 54.9905 64.02L50.7505 64V53.5H52.1705V57.16L55.2705 57.2ZM54.9105 62.94C55.8838 62.9533 56.6171 62.76 57.1105 62.36C57.6171 61.9467 57.8705 61.3467 57.8705 60.56C57.8705 59.7733 57.6238 59.2 57.1305 58.84C56.6371 58.4667 55.8971 58.2733 54.9105 58.26L52.1705 58.22V62.9L54.9105 62.94ZM66.52 64.1C65.4267 64.1 64.4667 63.8733 63.64 63.42C62.8133 62.9533 62.1667 62.32 61.7 61.52C61.2333 60.7067 61 59.78 61 58.74C61 57.7 61.22 56.78 61.66 55.98C62.1133 55.18 62.7267 54.5533 63.5 54.1C64.2867 53.6333 65.1667 53.4 66.14 53.4C67.1267 53.4 68 53.6267 68.76 54.08C69.5333 54.52 70.14 55.1467 70.58 55.96C71.02 56.76 71.24 57.6867 71.24 58.74C71.24 58.8067 71.2333 58.88 71.22 58.96C71.22 59.0267 71.22 59.1 71.22 59.18H62.08V58.12H70.46L69.9 58.54C69.9 57.78 69.7333 57.1067 69.4 56.52C69.08 55.92 68.64 55.4533 68.08 55.12C67.52 54.7867 66.8733 54.62 66.14 54.62C65.42 54.62 64.7733 54.7867 64.2 55.12C63.6267 55.4533 63.18 55.92 62.86 56.52C62.54 57.12 62.38 57.8067 62.38 58.58V58.8C62.38 59.6 62.5533 60.3067 62.9 60.92C63.26 61.52 63.7533 61.9933 64.38 62.34C65.02 62.6733 65.7467 62.84 66.56 62.84C67.2 62.84 67.7933 62.7267 68.34 62.5C68.9 62.2733 69.38 61.9267 69.78 61.46L70.58 62.38C70.1133 62.94 69.5267 63.3667 68.82 63.66C68.1267 63.9533 67.36 64.1 66.52 64.1ZM79.8033 64.1C78.8966 64.1 78.0766 63.8933 77.3433 63.48C76.6099 63.0533 76.0233 62.4467 75.5833 61.66C75.1566 60.86 74.9433 59.8867 74.9433 58.74C74.9433 57.5933 75.1566 56.6267 75.5833 55.84C76.0099 55.04 76.5899 54.4333 77.3233 54.02C78.0566 53.6067 78.8833 53.4 79.8033 53.4C80.8033 53.4 81.6966 53.6267 82.4833 54.08C83.2833 54.52 83.9099 55.1467 84.3633 55.96C84.8166 56.76 85.0433 57.6867 85.0433 58.74C85.0433 59.8067 84.8166 60.74 84.3633 61.54C83.9099 62.34 83.2833 62.9667 82.4833 63.42C81.6966 63.8733 80.8033 64.1 79.8033 64.1ZM74.3833 67.88V53.5H75.7433V56.66L75.6033 58.76L75.8033 60.88V67.88H74.3833ZM79.7033 62.84C80.4499 62.84 81.1166 62.6733 81.7033 62.34C82.2899 61.9933 82.7566 61.5133 83.1033 60.9C83.4499 60.2733 83.6233 59.5533 83.6233 58.74C83.6233 57.9267 83.4499 57.2133 83.1033 56.6C82.7566 55.9867 82.2899 55.5067 81.7033 55.16C81.1166 54.8133 80.4499 54.64 79.7033 54.64C78.9566 54.64 78.2833 54.8133 77.6833 55.16C77.0966 55.5067 76.6299 55.9867 76.2833 56.6C75.9499 57.2133 75.7833 57.9267 75.7833 58.74C75.7833 59.5533 75.9499 60.2733 76.2833 60.9C76.6299 61.5133 77.0966 61.9933 77.6833 62.34C78.2833 62.6733 78.9566 62.84 79.7033 62.84ZM100.183 64L96.5831 58.8L97.7631 58.1L101.883 64H100.183ZM94.2231 59.32V58.1H97.5431V59.32H94.2231ZM97.9031 58.9L96.5431 58.7L100.043 53.5H101.583L97.9031 58.9ZM87.7431 64H86.0431L90.1631 58.1L91.3231 58.8L87.7431 64ZM94.6631 64H93.2431V53.5H94.6631V64ZM93.6831 59.32H90.3831V58.1H93.6831V59.32ZM90.0431 58.9L86.3431 53.5H87.8831L91.3631 58.7L90.0431 58.9Z" fill="white"/>
</svg>
